<mxfile modified="2024-02-06T17:19:40.804Z" host="app.diagrams.net" agent="Mozilla/5.0 (X11; Linux x86_64) AppleWebKit/537.36 (KHTML, like Gecko) Chrome/121.0.0.0 Safari/537.36" etag="eCGrzW0eWnp2W5Jt7o4q" version="23.1.1" type="github">
  <diagram id="Ht1M8jgEwFfnCIfOTk4-" name="Page-1">
    <mxGraphModel dx="3559" dy="2047" grid="1" gridSize="10" guides="1" tooltips="1" connect="1" arrows="1" fold="1" page="1" pageScale="1" pageWidth="1169" pageHeight="827" math="0" shadow="0">
      <root>
        <mxCell id="0" />
        <mxCell id="1" parent="0" />
        <mxCell id="UEzPUAAOIrF-is8g5C7q-74" value="AWS Cloud" style="points=[[0,0],[0.25,0],[0.5,0],[0.75,0],[1,0],[1,0.25],[1,0.5],[1,0.75],[1,1],[0.75,1],[0.5,1],[0.25,1],[0,1],[0,0.75],[0,0.5],[0,0.25]];outlineConnect=0;gradientColor=none;html=1;whiteSpace=wrap;fontSize=12;fontStyle=0;shape=mxgraph.aws4.group;grIcon=mxgraph.aws4.group_aws_cloud_alt;strokeColor=#232F3E;fillColor=none;verticalAlign=top;align=left;spacingLeft=30;fontColor=#232F3E;dashed=0;labelBackgroundColor=#ffffff;container=1;pointerEvents=0;collapsible=0;recursiveResize=0;" parent="1" vertex="1">
          <mxGeometry x="110" y="120" width="780" height="1090" as="geometry" />
        </mxCell>
        <mxCell id="hiCgDXWP21jply5wk_gd-21" style="edgeStyle=none;curved=1;rounded=0;orthogonalLoop=1;jettySize=auto;html=1;fontSize=12;startSize=8;endSize=8;" edge="1" parent="UEzPUAAOIrF-is8g5C7q-74" source="hiCgDXWP21jply5wk_gd-19" target="UEzPUAAOIrF-is8g5C7q-85">
          <mxGeometry relative="1" as="geometry" />
        </mxCell>
        <mxCell id="hiCgDXWP21jply5wk_gd-19" value="" style="sketch=0;outlineConnect=0;fontColor=#232F3E;gradientColor=none;fillColor=#E7157B;strokeColor=none;dashed=0;verticalLabelPosition=bottom;verticalAlign=top;align=center;html=1;fontSize=12;fontStyle=0;aspect=fixed;pointerEvents=1;shape=mxgraph.aws4.event_time_based;" vertex="1" parent="UEzPUAAOIrF-is8g5C7q-74">
          <mxGeometry x="32" y="40" width="100" height="100" as="geometry" />
        </mxCell>
        <mxCell id="hiCgDXWP21jply5wk_gd-20" value="&lt;span style=&quot;color: rgb(94, 94, 94); font-family: Roboto, Helvetica, sans-serif; font-size: 16px; font-style: normal; font-variant-ligatures: normal; font-variant-caps: normal; font-weight: 400; letter-spacing: normal; orphans: 2; text-align: left; text-indent: 0px; text-transform: none; widows: 2; word-spacing: 0px; -webkit-text-stroke-width: 0px; background-color: rgb(255, 255, 255); text-decoration-thickness: initial; text-decoration-style: initial; text-decoration-color: initial; float: none; display: inline !important;&quot;&gt;Amazon CloudWatch&lt;br&gt;&amp;nbsp;Events Rule&lt;/span&gt;" style="text;whiteSpace=wrap;html=1;fontSize=16;" vertex="1" parent="UEzPUAAOIrF-is8g5C7q-74">
          <mxGeometry x="20" y="150" width="170" height="40" as="geometry" />
        </mxCell>
        <mxCell id="hiCgDXWP21jply5wk_gd-26" value="" style="edgeStyle=none;curved=1;rounded=0;orthogonalLoop=1;jettySize=auto;html=1;fontSize=12;startSize=8;endSize=8;" edge="1" parent="UEzPUAAOIrF-is8g5C7q-74" source="UEzPUAAOIrF-is8g5C7q-85" target="UEzPUAAOIrF-is8g5C7q-87">
          <mxGeometry relative="1" as="geometry" />
        </mxCell>
        <mxCell id="hiCgDXWP21jply5wk_gd-39" style="edgeStyle=none;curved=1;rounded=0;orthogonalLoop=1;jettySize=auto;html=1;fontSize=12;startSize=8;endSize=8;" edge="1" parent="UEzPUAAOIrF-is8g5C7q-74" source="UEzPUAAOIrF-is8g5C7q-85" target="UEzPUAAOIrF-is8g5C7q-81">
          <mxGeometry relative="1" as="geometry" />
        </mxCell>
        <mxCell id="UEzPUAAOIrF-is8g5C7q-85" value="AWS Lambda" style="outlineConnect=0;fontColor=#232F3E;gradientColor=#F78E04;gradientDirection=north;fillColor=#D05C17;strokeColor=#ffffff;dashed=0;verticalLabelPosition=bottom;verticalAlign=top;align=center;html=1;fontSize=12;fontStyle=0;aspect=fixed;shape=mxgraph.aws4.resourceIcon;resIcon=mxgraph.aws4.lambda;labelBackgroundColor=#ffffff;spacingTop=6;" parent="UEzPUAAOIrF-is8g5C7q-74" vertex="1">
          <mxGeometry x="250" y="100" width="78" height="78" as="geometry" />
        </mxCell>
        <mxCell id="UEzPUAAOIrF-is8g5C7q-87" value="Amazon&lt;br&gt;DynamoDB" style="outlineConnect=0;fontColor=#232F3E;gradientColor=#4D72F3;gradientDirection=north;fillColor=#3334B9;strokeColor=#ffffff;dashed=0;verticalLabelPosition=bottom;verticalAlign=top;align=center;html=1;fontSize=12;fontStyle=0;aspect=fixed;shape=mxgraph.aws4.resourceIcon;resIcon=mxgraph.aws4.dynamodb;labelBackgroundColor=#ffffff;" parent="UEzPUAAOIrF-is8g5C7q-74" vertex="1">
          <mxGeometry x="46" y="250" width="78" height="78" as="geometry" />
        </mxCell>
        <mxCell id="hiCgDXWP21jply5wk_gd-28" value="&lt;font style=&quot;font-size: 20px;&quot;&gt;&lt;b&gt;RSS feed store&lt;/b&gt;&lt;/font&gt;" style="text;html=1;strokeColor=none;fillColor=none;align=center;verticalAlign=middle;whiteSpace=wrap;rounded=0;fontSize=16;" vertex="1" parent="UEzPUAAOIrF-is8g5C7q-74">
          <mxGeometry y="210" width="170" height="30" as="geometry" />
        </mxCell>
        <mxCell id="hiCgDXWP21jply5wk_gd-29" value="&lt;font style=&quot;font-size: 20px;&quot;&gt;&lt;b&gt;statechange lambda (.py)&lt;/b&gt;&lt;/font&gt;" style="text;html=1;strokeColor=none;fillColor=none;align=center;verticalAlign=middle;whiteSpace=wrap;rounded=0;fontSize=16;" vertex="1" parent="UEzPUAAOIrF-is8g5C7q-74">
          <mxGeometry x="200" y="50" width="170" height="30" as="geometry" />
        </mxCell>
        <mxCell id="UEzPUAAOIrF-is8g5C7q-81" value="Amazon Simple&lt;br&gt;Notification Service&lt;br&gt;" style="outlineConnect=0;fontColor=#232F3E;gradientColor=#F34482;gradientDirection=north;fillColor=#BC1356;strokeColor=#ffffff;dashed=0;verticalLabelPosition=bottom;verticalAlign=top;align=center;html=1;fontSize=12;fontStyle=0;aspect=fixed;shape=mxgraph.aws4.resourceIcon;resIcon=mxgraph.aws4.sns;labelBackgroundColor=#ffffff;" parent="UEzPUAAOIrF-is8g5C7q-74" vertex="1">
          <mxGeometry x="420" y="100" width="78" height="78" as="geometry" />
        </mxCell>
        <mxCell id="UEzPUAAOIrF-is8g5C7q-82" value="Amazon Simple&lt;br&gt;Queue Service&lt;br&gt;" style="outlineConnect=0;fontColor=#232F3E;gradientColor=#F34482;gradientDirection=north;fillColor=#BC1356;strokeColor=#ffffff;dashed=0;verticalLabelPosition=bottom;verticalAlign=top;align=center;html=1;fontSize=12;fontStyle=0;aspect=fixed;shape=mxgraph.aws4.resourceIcon;resIcon=mxgraph.aws4.sqs;labelBackgroundColor=#ffffff;" parent="UEzPUAAOIrF-is8g5C7q-74" vertex="1">
          <mxGeometry x="580" y="100" width="78" height="78" as="geometry" />
        </mxCell>
        <mxCell id="UEzPUAAOIrF-is8g5C7q-92" value="" style="edgeStyle=orthogonalEdgeStyle;rounded=0;orthogonalLoop=1;jettySize=auto;html=1;endArrow=open;endFill=0;strokeWidth=2;" parent="UEzPUAAOIrF-is8g5C7q-74" source="UEzPUAAOIrF-is8g5C7q-81" target="UEzPUAAOIrF-is8g5C7q-82" edge="1">
          <mxGeometry relative="1" as="geometry" />
        </mxCell>
        <mxCell id="hiCgDXWP21jply5wk_gd-36" value="&lt;font style=&quot;font-size: 20px;&quot;&gt;&lt;b&gt;stateChange&lt;br&gt;topic&lt;br&gt;&lt;/b&gt;&lt;/font&gt;" style="text;html=1;strokeColor=none;fillColor=none;align=center;verticalAlign=middle;whiteSpace=wrap;rounded=0;fontSize=16;" vertex="1" parent="UEzPUAAOIrF-is8g5C7q-74">
          <mxGeometry x="374" y="50" width="170" height="30" as="geometry" />
        </mxCell>
        <mxCell id="hiCgDXWP21jply5wk_gd-37" value="&lt;font style=&quot;font-size: 20px;&quot;&gt;&lt;b&gt;stateChange&lt;br&gt;queue&lt;br&gt;&lt;/b&gt;&lt;/font&gt;" style="text;html=1;strokeColor=none;fillColor=none;align=center;verticalAlign=middle;whiteSpace=wrap;rounded=0;fontSize=16;" vertex="1" parent="UEzPUAAOIrF-is8g5C7q-74">
          <mxGeometry x="540" y="50" width="170" height="30" as="geometry" />
        </mxCell>
        <mxCell id="hiCgDXWP21jply5wk_gd-42" value="Amazon Simple&lt;br&gt;Queue Service&lt;br&gt;" style="outlineConnect=0;fontColor=#232F3E;gradientColor=#F34482;gradientDirection=north;fillColor=#BC1356;strokeColor=#ffffff;dashed=0;verticalLabelPosition=bottom;verticalAlign=top;align=center;html=1;fontSize=12;fontStyle=0;aspect=fixed;shape=mxgraph.aws4.resourceIcon;resIcon=mxgraph.aws4.sqs;labelBackgroundColor=#ffffff;" vertex="1" parent="UEzPUAAOIrF-is8g5C7q-74">
          <mxGeometry x="420" y="320" width="78" height="78" as="geometry" />
        </mxCell>
        <mxCell id="hiCgDXWP21jply5wk_gd-43" value="&lt;font style=&quot;font-size: 20px;&quot;&gt;&lt;b&gt;stateChange&lt;br&gt;DEADLETTER queue&lt;br&gt;&lt;/b&gt;&lt;/font&gt;" style="text;html=1;strokeColor=none;fillColor=none;align=center;verticalAlign=middle;whiteSpace=wrap;rounded=0;fontSize=16;" vertex="1" parent="UEzPUAAOIrF-is8g5C7q-74">
          <mxGeometry x="374" y="264" width="170" height="30" as="geometry" />
        </mxCell>
        <mxCell id="hiCgDXWP21jply5wk_gd-48" value="AWS Lambda" style="outlineConnect=0;fontColor=#232F3E;gradientColor=#F78E04;gradientDirection=north;fillColor=#D05C17;strokeColor=#ffffff;dashed=0;verticalLabelPosition=bottom;verticalAlign=top;align=center;html=1;fontSize=12;fontStyle=0;aspect=fixed;shape=mxgraph.aws4.resourceIcon;resIcon=mxgraph.aws4.lambda;labelBackgroundColor=#ffffff;spacingTop=6;" vertex="1" parent="UEzPUAAOIrF-is8g5C7q-74">
          <mxGeometry x="596" y="328" width="78" height="78" as="geometry" />
        </mxCell>
        <mxCell id="hiCgDXWP21jply5wk_gd-49" value="&lt;font style=&quot;font-size: 20px;&quot;&gt;&lt;b&gt;update episodes/show&lt;br&gt;lambda (.py)&lt;/b&gt;&lt;/font&gt;" style="text;html=1;strokeColor=none;fillColor=none;align=center;verticalAlign=middle;whiteSpace=wrap;rounded=0;fontSize=16;" vertex="1" parent="UEzPUAAOIrF-is8g5C7q-74">
          <mxGeometry x="550" y="264" width="170" height="30" as="geometry" />
        </mxCell>
        <mxCell id="hiCgDXWP21jply5wk_gd-55" value="Amazon&lt;br&gt;DynamoDB" style="outlineConnect=0;fontColor=#232F3E;gradientColor=#4D72F3;gradientDirection=north;fillColor=#3334B9;strokeColor=#ffffff;dashed=0;verticalLabelPosition=bottom;verticalAlign=top;align=center;html=1;fontSize=12;fontStyle=0;aspect=fixed;shape=mxgraph.aws4.resourceIcon;resIcon=mxgraph.aws4.dynamodb;labelBackgroundColor=#ffffff;" vertex="1" parent="UEzPUAAOIrF-is8g5C7q-74">
          <mxGeometry x="642" y="893" width="78" height="78" as="geometry" />
        </mxCell>
        <mxCell id="hiCgDXWP21jply5wk_gd-56" value="&lt;font style=&quot;font-size: 20px;&quot;&gt;&lt;b&gt;show store&lt;/b&gt;&lt;/font&gt;" style="text;html=1;strokeColor=none;fillColor=none;align=center;verticalAlign=middle;whiteSpace=wrap;rounded=0;fontSize=16;" vertex="1" parent="UEzPUAAOIrF-is8g5C7q-74">
          <mxGeometry x="596" y="860" width="170" height="30" as="geometry" />
        </mxCell>
        <mxCell id="hiCgDXWP21jply5wk_gd-57" value="Amazon&lt;br&gt;DynamoDB" style="outlineConnect=0;fontColor=#232F3E;gradientColor=#4D72F3;gradientDirection=north;fillColor=#3334B9;strokeColor=#ffffff;dashed=0;verticalLabelPosition=bottom;verticalAlign=top;align=center;html=1;fontSize=12;fontStyle=0;aspect=fixed;shape=mxgraph.aws4.resourceIcon;resIcon=mxgraph.aws4.dynamodb;labelBackgroundColor=#ffffff;" vertex="1" parent="UEzPUAAOIrF-is8g5C7q-74">
          <mxGeometry x="646" y="610" width="78" height="78" as="geometry" />
        </mxCell>
        <mxCell id="hiCgDXWP21jply5wk_gd-58" value="&lt;font style=&quot;font-size: 20px;&quot;&gt;&lt;b&gt;episode store&lt;/b&gt;&lt;/font&gt;" style="text;html=1;strokeColor=none;fillColor=none;align=center;verticalAlign=middle;whiteSpace=wrap;rounded=0;fontSize=16;" vertex="1" parent="UEzPUAAOIrF-is8g5C7q-74">
          <mxGeometry x="600" y="570" width="170" height="30" as="geometry" />
        </mxCell>
        <mxCell id="hiCgDXWP21jply5wk_gd-4" value="" style="shape=mxgraph.signs.tech.rss;html=1;pointerEvents=1;fillColor=#000000;strokeColor=none;verticalLabelPosition=bottom;verticalAlign=top;align=center;fontSize=16;" vertex="1" parent="1">
          <mxGeometry x="130" y="-50" width="72.5" height="70" as="geometry" />
        </mxCell>
        <mxCell id="hiCgDXWP21jply5wk_gd-5" value="RSS1&amp;nbsp;" style="text;html=1;align=center;verticalAlign=middle;resizable=0;points=[];autosize=1;strokeColor=none;fillColor=none;fontSize=16;" vertex="1" parent="1">
          <mxGeometry x="120" y="28" width="70" height="30" as="geometry" />
        </mxCell>
        <mxCell id="hiCgDXWP21jply5wk_gd-6" value="" style="shape=mxgraph.signs.tech.rss;html=1;pointerEvents=1;fillColor=#000000;strokeColor=none;verticalLabelPosition=bottom;verticalAlign=top;align=center;fontSize=16;" vertex="1" parent="1">
          <mxGeometry x="220" y="-50" width="72.5" height="70" as="geometry" />
        </mxCell>
        <mxCell id="hiCgDXWP21jply5wk_gd-8" value="" style="shape=mxgraph.signs.tech.rss;html=1;pointerEvents=1;fillColor=#000000;strokeColor=none;verticalLabelPosition=bottom;verticalAlign=top;align=center;fontSize=16;" vertex="1" parent="1">
          <mxGeometry x="310" y="-50" width="72.5" height="70" as="geometry" />
        </mxCell>
        <mxCell id="hiCgDXWP21jply5wk_gd-9" value="RSS2" style="text;html=1;align=center;verticalAlign=middle;resizable=0;points=[];autosize=1;strokeColor=none;fillColor=none;fontSize=16;" vertex="1" parent="1">
          <mxGeometry x="220" y="28" width="70" height="30" as="geometry" />
        </mxCell>
        <mxCell id="hiCgDXWP21jply5wk_gd-10" value="..." style="text;html=1;align=center;verticalAlign=middle;resizable=0;points=[];autosize=1;strokeColor=none;fillColor=none;fontSize=16;" vertex="1" parent="1">
          <mxGeometry x="325" y="28" width="40" height="30" as="geometry" />
        </mxCell>
        <mxCell id="hiCgDXWP21jply5wk_gd-15" value="" style="shape=stencil(lVrLchw3DPyavbL4fpwd5z9cZTlSRZFcspzEf+9mNpxdNmd6yreVFhgSQANoYPYSPnx7/PT14eLtt/e31z8f/nn6/P54Cb9dvH96eXx4e3rHp0v4eAkfvry+Pfzx9vr95fP176+fumT/9Nfr3/0J/171ojcpdy1vf1z/E0ys//3j96v889PLnXyoJoZJPhnbhHwybn5+MU49342vh7yzJpRjBZ9NsbNCNDELBWeanxWaieIEV4ydrwSblQ0OPp2vBKuCUKgmzD4NxRRhAo6f5WM0zguTTZvvk6wpygCTSb6YaJW8nWOco7QXzy8zJrYn7IPCZMJQMUHIZ5PjJF8BauEf50xKs0I1LUhIkELTJ/g4HLgpZOPFCUBMoxOACXFCaAzrriCCEAsnDhRsFKiLpha2wQpYZMe1peERwoacx9d3bs3CBuAmtFlhq2f7ColTrW1g3FeoppKCHW7Yz+UlcBWREVeqi1sBviLcWgE+NysUmT79ApQPqCCiaMOJlk4IssAgTIWMhpcElloynlK6Gi8iDagRlhBKVbUBZioCBdAQGdcqYyk3CT4o5Lkv5CzBt6PgJZb6lWaFpKEBowmtSNqg4rB0z9hkXULgCBox6CvBxBkaoBCqaiC/AnVPb7ywoS6R9lvHPso4KpXokLI/eyYxrhonbChw4mw0SIkVbi15NLQ72vN/HdlXCCbN0KgS3cVyGIBVUQJyZR6WZHPIiXs6YKHkg/EUg1FC9uXteNxN3rtjeSSKayyvmltaMCHvkwLfJ8jcT44zMw6StS9vR8G9+b+IeMXKjET3BHR/R11HFoq4tfqtD5osOgIYaSVaDmYvHAqFVFhB3ihyK+8KyuQ4JpU7BVXrUNkqKeikjAsooJC0Ql7S3oqOsCo0Cbv1Rk2Wxm4ylxXVA1efbl30MGie5L2OWWKYKpoA+cL3USwB8o3tlWkG4uTInxJCy/jbJIvv8guCvFawgRVOIlaXPLM6MXNiBa9jHB0rqBG+T6/LleQJgTm20wNkT4Nlq5D1CXlROKkV5CUEWsvz9HVai+Y411FgDxOTKPxZIvyafBohvfGJpuQzF67Tfkb9DzBU/oG7mX+o+6dl5NcUEP2e5PVKB3yC+h86geIfC1+xIyBHfIj4nNWzeOC9nR2V9YjPNaorg3Ae8cVIS7KxdDqa3D0NHnLvWCLzj6zls6kz3qrEJxg7yTsvl3yYCSpVuTwGl32FNAjT5iE7asa+wjKQImfUkqk5zpmgq1wf22nxeDLBJm6X0Q9cHQ2kZXYrElv1M4y8bTY66RVQa+xWpJJqHs7aBUonY3hjq3MZbf1IgTY0GL8U+mB1mq3ueNfbDdoMlDKYw2HkKB8002wLvQbi1USHQZ8qQN8yqVDbhQsWSe7wNa0Ha9M5mpidni3v/Bjr7/aJKtKlLmvaIAl231otCupKKJRpNhqRUS8HcubKjdhXNeq7hboUuaxIkfeJwK8axvuqmU5okvb3ZTYVV6v7W3DcD3vWCiPQb6jhwogojHBlUUjjPc/RWwW7ro4VZ+BxsybJATzXVqBR9XTLlfKGrQN5rpO6KNnltZHuJsuWGSRO3Scy5ewvL4V8YQ4fktzEI2D0nqxP1yrCeezcNoUguxtIVJxDAFRFUVTBcniR6OWSAx2/LAOzypvINTWO1NuXr8zbvFz/IkS8pTFWxXjpIk7mPeQJ1CfT7JI0bgyfR/I8Lpugn9/4+WrPirmO53fZDro8zy2qQe3Jy7kucNJ72W26vUQhz+JbWV7OvZ7n5KAXTL/4e4ZzeXy4/Xjiy9Pz8/W3F/ff848t8K/rDzXCx58=);lineShape=1;strokeColor=default;fontSize=16;" vertex="1" parent="1">
          <mxGeometry x="31.321508944632797" y="-97.05618265907196" width="387.57015923347296" height="187.67543432120686" as="geometry" />
        </mxCell>
        <mxCell id="hiCgDXWP21jply5wk_gd-17" value="&lt;font style=&quot;font-size: 20px;&quot;&gt;~300k feeds (that each basically is a document)&amp;nbsp;&lt;br&gt;with up to 1000 shows/episodes each&lt;/font&gt;" style="text;html=1;align=center;verticalAlign=middle;resizable=0;points=[];autosize=1;strokeColor=none;fillColor=none;fontSize=16;" vertex="1" parent="1">
          <mxGeometry x="-5" y="-157" width="450" height="60" as="geometry" />
        </mxCell>
        <mxCell id="hiCgDXWP21jply5wk_gd-22" value="&lt;span style=&quot;font-size: 20px;&quot;&gt;Since we want the round time to be at most 5 minutes&amp;nbsp;&lt;br&gt;we should consider running this more often and account&lt;br&gt;&amp;nbsp;for the averagae delay in ingestion based of previous runs&lt;br&gt;&lt;/span&gt;" style="text;html=1;align=center;verticalAlign=middle;resizable=0;points=[];autosize=1;strokeColor=none;fillColor=none;fontSize=16;" vertex="1" parent="1">
          <mxGeometry x="-420" y="150" width="540" height="90" as="geometry" />
        </mxCell>
        <mxCell id="hiCgDXWP21jply5wk_gd-23" style="edgeStyle=none;curved=1;rounded=0;orthogonalLoop=1;jettySize=auto;html=1;entryX=0.5;entryY=1;entryDx=0;entryDy=0;entryPerimeter=0;fontSize=12;startSize=8;endSize=8;" edge="1" parent="1" source="UEzPUAAOIrF-is8g5C7q-85" target="hiCgDXWP21jply5wk_gd-4">
          <mxGeometry relative="1" as="geometry" />
        </mxCell>
        <mxCell id="hiCgDXWP21jply5wk_gd-24" style="edgeStyle=none;curved=1;rounded=0;orthogonalLoop=1;jettySize=auto;html=1;entryX=0.5;entryY=1;entryDx=0;entryDy=0;entryPerimeter=0;fontSize=12;startSize=8;endSize=8;" edge="1" parent="1" source="UEzPUAAOIrF-is8g5C7q-85" target="hiCgDXWP21jply5wk_gd-6">
          <mxGeometry relative="1" as="geometry" />
        </mxCell>
        <mxCell id="hiCgDXWP21jply5wk_gd-25" style="edgeStyle=none;curved=1;rounded=0;orthogonalLoop=1;jettySize=auto;html=1;entryX=0.5;entryY=1;entryDx=0;entryDy=0;entryPerimeter=0;fontSize=12;startSize=8;endSize=8;" edge="1" parent="1" source="UEzPUAAOIrF-is8g5C7q-85" target="hiCgDXWP21jply5wk_gd-8">
          <mxGeometry relative="1" as="geometry" />
        </mxCell>
        <mxCell id="hiCgDXWP21jply5wk_gd-27" value="&lt;font style=&quot;font-size: 20px;&quot;&gt;Key-value store for all the RSS feeds we are subscribing to. &lt;br&gt;Where the feed is the key, and the value can contains the last build date:&lt;br&gt;&lt;br&gt;&quot;https://api.sr.se/api/rss/pod/3795&quot;: {&lt;br&gt;&lt;/font&gt;&lt;blockquote style=&quot;margin: 0 0 0 40px; border: none; padding: 0px;&quot;&gt;&lt;font style=&quot;font-size: 20px;&quot;&gt;&quot;name&quot;: &quot;Ekot SR&quot;,&lt;br&gt;&lt;/font&gt;&lt;font style=&quot;font-size: 20px;&quot;&gt;&quot;lastBuildDate&quot;: &quot;Tue, 06 Feb 2024 16:26:42 GMT&quot;,&lt;br&gt;&lt;/font&gt;&lt;font style=&quot;font-size: 20px;&quot;&gt;&quot;hash&quot;: null&lt;/font&gt;&lt;/blockquote&gt;&lt;font style=&quot;font-size: 20px;&quot;&gt;}&lt;br&gt;&lt;br&gt;https://www.rssboard.org/rss-specification&lt;br&gt;&lt;br&gt;as its per design in the contract is optional, &lt;br&gt;if missing we get to manage our own state with a hash&lt;br&gt;&lt;br&gt;when a message as been submitted successfully to SNS then&lt;br&gt;dynamoDB should be updated to reflect that this is latest&lt;br&gt;&lt;/font&gt;" style="text;html=1;align=left;verticalAlign=middle;resizable=0;points=[];autosize=1;strokeColor=none;fillColor=none;fontSize=16;" vertex="1" parent="1">
          <mxGeometry x="-530" y="295" width="670" height="400" as="geometry" />
        </mxCell>
        <mxCell id="hiCgDXWP21jply5wk_gd-31" value="" style="shape=stencil(lZvJklw1EEW/prcKjU/SmuE/iMDgDoxNGDP9PSkavSpd1TsFu3Y5pUqlcrh5U/WSvvr1/Xe/vHuJ/tcvnz/99O6P1++/vH9JX7/E+Prx/bvPr1/sr5f0zUv66odPn9/9+PnTbx+/f/v3L98NyfHXz59+Hzv8+bYuB3f4sSr6v/79xMXjnw++fZP/8PrxTj51V7PIhwLyzUXdP9D+xfVD9Wkgn1xUfYoHeT/Vvcm3fC0fD9dW+eJSBfnkyqr/4TzoE73qf7garuVDdT4t8tVl0D9k5/si31yg/YNrXuQr6N9dX83TXQR3aFPZm3jt1+J22LiIB+8KaF/c0Vb54BJ4m/nKqn2IKG+XK/sn1CdqsIQn3uZ8WOUPl8CcYfriKd+mezyU9/PbT/mO+nh3rPrYN1J02e2s+5vFKJvY/qsz2w1G1n91TvOQAv7jXV/tY+GfYP/g/Hq/ll4SRZcL63nTMS3w3/bP3nm0v0RXTq6jfFvtmZs7WH5NDiW5BtktTG885TvaM87cfSa37Cpl83mbZ3KzdB0p3tPqn7Wgv9WZy87k5rEajXSzHqDl+cnjBUlvoNVZ0K7yueT/7l0mk3ot2D3iGcyofTVSN6eGM5iVkqiUMamnze1sQaMFVpTWuOwc96lON7tbUCixb5nLFnRQKdsR11LTD5chteSzjp4L6swGj301bjddXYMzlGO76YaHPrZ01DuWg6O4FrYF4BoWjqmpSgeYtWatgHboSgua4ie7hwQpoAXX5eLsKuHi2q5SQG+1CJaq3OzQcA/jv1f3tu/spFKfWfEuLzW4h5EjVteo5q1wBltwrJm7BkRetqCsZzjMDHBoWxBXKx3RZbq4rmCtcDzYAkGDVq06fUPbypXZDcqb3bTgi1zRvW1Blm6FE5ktEMSZ47MzBFHJYwANK60LrAWjmmsXp6DncJ0WBK3q1rQRarYCVdaLM1hFydgKlIRoMiQNZr3Vm3OBuTeYtW+dghUxClHLQrHogkyHNiMKtu2skrmGLGgIHfpWgaxyd3DvW64+FxysUlP8GZ/cdJvw9K4BQOdrG6KPsyZdLZC8ZKCU4qFvBET0COHsHo41pq1JooJiN92kC6sY0+Z8Vb7BsjeplF1azxDKbOuvIi6LSml+52X2Xp3POmHqZCyRSetmrTYREVYC25oEBrjmwi730DEHGHJQjIhMh0GTtu7PvZIVTME+5lkQbUdVYFKxd7PW6FBm5wD7GNrLKk+lp7SJo+6YJvChUjRrH9gLG74Ve5Z544/lDUtK8zkj9RJwKzNIHpoPDfyE8MI6gCwZfiKax/JxFowzscye47F8mFTRGQCYrfNmnzA/uGJmpV3wWMZNXvQxeWJOu9rHcy9v8ro/xdeQV/0JrA35KPIJ7D/kq8iHJ/bJIu9ZH4lfP/uGSyZ9k2f7Nz2vpya7z+u8Oy/bX5h3j/ltyHeRJ7z/SJ64u0f61Cf663mJy3pkT4Jb6YRvt3h8cl+bPxDCfORvnTiRrr3HScP853g5WJ8tHsuT/TXeaVLyKJ9E9p8tX4Un9lf9iQwZ8uqfT+63bvK8//+St/xf1D6El8YkT8h95HJy0vaBWyarj4q8Md9a/RXQGjG+rL5rh4X14tbL3/AAwXTDJ9KQZax3A/+s+xfMbwNfbfiH8GFQ/Q+058CHOlmkydzAn0L5TP7kCt9KfqiI9ww/C69ccXI58Pk2iSQyJigJ0BCvDo5N8X9hsqdKj+S5C/Oa4KzloW+wLqzKgsjdcFbWOmTMcdZ6BhlIFkwS1txKUg9PyJ6tqwptmuHxgo2lGzNGOkOfPPtdR08DDVsgF2eZJfM3KI2RZm1+uCB4ryTaeCbAp5ZgGNFPdt3QxHhpwN8go/NYkYW2mxOWwQKCAKwtEJ57PJYg1q3q+C0xBDF3FYorMWkwhjZZF1ATZwukqKWIqMVCTg+dOIKiwsaUMe/1MNv4O34V78ErsEsV3bV1ZQIMa9CzgdZ0zmrggW7aFsgrEkMP1NyMqacsKIh2Ble/3kOuSDXaAmHdDBAEHrIIvi5pzmkuObFVpVIRMfeTmT8rdJwY6Mo1xFvHkIXiIcwjnjU3IMjoXotiPThrnE3fWXUDv+jpOqBoZQLXK9eQqYxtgTed1ZcsBnH+FlWlkRboWUDTaYClNuJ+Bne4jWZJpbphB8vnOMvdRrN3RekKT+pAuiPhWA5tMHpHxsUQtHjfqDFEYbXJUNwtIM7CeoxQ9SKotOdtTHlj4x93YVW7ks7c+3irkHQB8iheh7mD76cng3W+Wbl3V7DSIDLlDBmpmsHMyMg7YTbeXxmOoR89DErqS5afia0JXt9btGdPd+I2IqcvyPrUrRYs00krXGX6MSi6sojlp1wSz6Xj/NBvs+s0H2tdyEcpuG3yHxfykpDys/2leo6na4CTvEKM8TQO7LntP57eoT6KeZh+9BpkT9rVbSo+xhOoj3YMCccZ+/4BHzp7ZRdCR+jstSEJFYFw0PsKBSeGcXt6mplOV/uPXhif5urIMyCsKNpFjvEilUudVnXG2Do8axgtXd8jNH7HG7QbrMh1jFfdKk/ONpp85Y6oyRnUqnJfpM94uOlFnrjHYX39VQA5czqfgd64wU7JPCl0T4i20t5n4qOz1BQJpWezJKkWCSt83ntG5MaHvOoTqThu1SthcjN5bXr5XX3Q6EpY7ExeZjcJi8WQ1/ulzuyRPM2mh/5qT4LSOWi8Z8a5268sMmLKvHGhmWflQV8g8gve//sroOfy9sftJ0c/vH748PaLpfv/158o2UdvP29K3/wN);lineShape=1;strokeColor=default;fontSize=16;" vertex="1" parent="1">
          <mxGeometry x="-629.3292703496126" y="267.4111133416665" width="769.3274417754295" height="455.1679489238825" as="geometry" />
        </mxCell>
        <mxCell id="hiCgDXWP21jply5wk_gd-32" value="" style="shape=stencil(lVrLchw3DPyavbJIgM+z4/yHqyxHW1Ekl6y8/j5gNhwNmzO90U1eA7skCDQbDV7004/HL98fLuJ/vL2+/Prw5/Xr2+NFf7qIXJ8fH16vb/bXRT9f9NO3l9eHX15ffn/+evv39y/dsv/128sf/Rv+uvmJ09idxP/93wfRlfbvJz/f7J+uzzt7dUFnex3fcGgfnfrZ3rtSz+2T82WyD2384qF9diHP9sUFsp7itM329otkPdXVeb9BXE3n9sG2l2YH74Q5qJN5x8UlIfbZldk+upbP7SU4gRN2uRD77HKd7L2rJEAqrjWw92Q92lxLaO9JAhXnFewTSyB1Zd5vGD94bN9cnTNIXSXxyRHXbylICiZX1+bzqrQAii03zOsPTklCFNswpKiVJPuF6KrMDlbz7BeSy1BkyUWy55LHf+8cGjnkUlycYcLS3JNTKNUlRYfA9tDGqe4dCFDU4GJCB2FIYdC4OGTmkEbi77CrBuKQXYNN265IWGsd37fVvjghB9e8ywDXaQDssYMgell6M/hqOla8lZt9Bdl0S+OYNgdLDVLQLTudszV6F0gutTLKZXPYbq1jh4pLitUpuaTMocwVl4Q7tIEpmwNPPnOAejBca9wBrpGsLpN6MIc2bzoXuofgPea3YVtgcW3jJtsc4gDz003McTVciCxdm5N5SfXOQdhRz7lhRUjT1aAP4L4NuD12sFyba9RqqjGH4MocJSuRdAcF5j20DW7PgKnMUeoJzLDSgjhv+j0fz+AbaJU5ZOaQxjHtHFhRF0Ei2XiN2j1dE0aJOiTEyo48JKx5jVIabPSMmgAKWLIk5mDIONdDh1vmoANKdw6JpHcyMquLA6k4o29p2QPjhzGNe3zn0MhJRxl8ancOjArYdRDXkyab1nqQSyxKmgZF3dcDcxBE4x16HtP0hn1GB0Ny1J3XJ9xEJveo8eCUMK6RxLUT8yX7lBy10R1YUuV7CHHh0htUHTsILsloHatRa9bifHLGZVn7UPHgDHgol0a0z23U7El/CwVqsFMJKq3didD2UJFSZss7AvUGGPP6E++3jdwB84njk+MDwKRLYTDME3vgGJEzAI/fb3jDzsuP236zV8phFs7T0Yasf7HXMgr7bD3QrRpeEmTxyJAMajKNv8zxUU+7zzD6uh3/Z+xcsPe0BiMRex20YNfBVJrPQI5EaD+ig2vt7Lme5dtiT+sR4tnXw+QO7EXeI3ZiD3hlOxJ2vWKf0CPGblcEUIn0royj+nb2fP0K8UlDrzqLZ0B7dr4R8dPs2a2nyJVlo3ln+aZoz8QXPWiwPWMGB/FPFJ9BeekR+ND368ioM/uG9oynWHwWBYLhj6Ia1+uLrCeiOtjtaT5AA2j2jNTERR+39ROKEpFbCr8v1vpSmm9r/UZ6/8aDfMgUH0AfF36/fNR+IZV2XzD5VFDNVS7/yugKd/cdq5eA8wnNFP89qt3KJbiA3Yy1K6xewoEWFdn4AOPT9XI2Dlj4TKNytKCCmOQOfkI+Jy5ORBR+Ux1d8nEDivmWAx2vLHJM3m7wE35eFpWLCm/YohdP+bY1GABwJVGACLI4NBqhkFCSrcqbpIIcrhbKiVdS2fghiC6CUqQsxY4NrtXee7JfWORM6+kZTvSOW9GBDj63PP6/qkFBNbPrQ4wqerxrWuJChuCorm3t3Jm24uEXhLO/smgAgY4/uz60pIYyBx3j130u3dG4CjqwMUtqOABtQgvIOuYYMaxMa+xKICwp0qFynwlClPitWWQRxTKHsYRDEHNgqnJXZOEXCo1S13wDOjAQqBalgEtiNV3rUqI8SpYIaREnhan7ird5H4AxtM9INztUspFGGexjc4h0dNpV6nlJNfDplR3c/Aul8IFDw4orkVLOrrTDL4TBok8dQOQqPKx1zKp2tzR79dHnEUADPJ9eVUTvVGiJmgNEKSkVotoClcas6ElnnIEYPNMoJZxQxEDvaUMhwKUuLvF6gAmFRqpO9tsA6LCnNW31JdBfF6oH1mXQL5wQ14xcwzgsY8RWkNhyejriq1tHt4n1jdZDf0oAT1LqeORxDMYNVYhQ76E30G5bEr0fyuiS9w7s3VRGuLclsUbYbiB80lEG2h47RITKkCmbKYo13Z+lsJlgQN4alDrk9fUXZ/cGW1CilU5aU1twjDYDaSHSkXbPvRkE+WXcFsecdXmcJRT0VHHgKJTtdV4P8jLv/gPKg1wt6xkDVxVXr5d2tdF5aQjL80Th9w7SYUtRNn8qmD/vM7KT9hY6ACtjBhQJJ25dwKdyFrya6vIUlYPguUQfSJEaVhyU9oEX+X5Z5H1+wIIv18ye9pGLPFXoJb60Ct2eyi8oJ/JHBrKMD+6N2zD+mb7elOU5b74nr3m0Z3L9as8fAq7rSfR5wbrfxJWIJZ6R5v9Hn0fft7c/3t9if7s+Pd2ecu//H99u20e3d9/6+R8=);lineShape=1;strokeColor=default;fontSize=16;" vertex="1" parent="1">
          <mxGeometry x="-452.7090103027517" y="94.80981973770668" width="603.3853525386857" height="188.13866481554822" as="geometry" />
        </mxCell>
        <mxCell id="hiCgDXWP21jply5wk_gd-50" value="&lt;font style=&quot;font-size: 20px;&quot;&gt;&lt;br&gt;&quot;https://api.sr.se/api/rss/pod/3795&quot;: {&lt;br&gt;&lt;/font&gt;&lt;blockquote style=&quot;margin: 0 0 0 40px; border: none; padding: 0px;&quot;&gt;&lt;font style=&quot;font-size: 20px;&quot;&gt;&quot;name&quot;: &quot;Ekot SR&quot;,&lt;br&gt;&lt;/font&gt;&lt;font style=&quot;font-size: 20px;&quot;&gt;&quot;lastBuildDate&quot;: &quot;Tue, 06 Feb 2024 16:26:42 GMT&quot;,&lt;br&gt;&lt;/font&gt;&lt;font style=&quot;font-size: 20px;&quot;&gt;&quot;hash&quot;: null&lt;/font&gt;&lt;/blockquote&gt;&lt;font style=&quot;font-size: 20px;&quot;&gt;}&lt;/font&gt;" style="text;html=1;align=left;verticalAlign=middle;resizable=0;points=[];autosize=1;strokeColor=none;fillColor=none;fontSize=16;" vertex="1" parent="1">
          <mxGeometry x="600" y="-50" width="520" height="160" as="geometry" />
        </mxCell>
        <mxCell id="hiCgDXWP21jply5wk_gd-52" value="" style="shape=stencil(lVrLchw3DPyavbJIgs+z4/yHqyxHW1Ekl6wk9t8HzBa5w+ZMj3TTA5ghQXSjAc5FPv14/PL94eLtj7fXlz8f/r1+fXu8yG8X76/Pjw+v1zf96SKfL/Lp28vrwx+vL38/f739/v1Ls2w//fXyT3vCz5ufj0Zq8/L21+0v0QT7/x9+v9k/XZ+39oL2wZRA7J2pGexzJfa2v/6+HpuP7V0xGe0Teb5LpszrSSZ7Yh9MTZN9MSERezG+TPbOmlyIgzMJHMRE9gZr/Lxj3VN2xw6lB7zba4w9ObJsAtgHY0mIkvFxts+mkiPQA52fL95YknLBODfb6xGT/eoJzCcmpZ/5fsr1cI8MdTxFjZ33G4KRSA6sJ9iwTzyFTJzPNxTjhdlD/KPjkOn/Hfa6fpIPah9me803un4/7zdZ4xgCTJ7XnwIFgO8AH/aV5oNm73y+OdJ8i6bMzy/WRIovN6+/jCccATjNC6qWc5B0vA6HwEkumiyzQ+6LPGJRwGQt9MwahUR0sMzBGxdwSdRBkLaqlipWmWJf8XDw9ByUuMLsUKqpbEm5M/lw0GpCwuorhrUIrZai1W/GTnGd7fcdlIzmk861w3XfQTo3Dwfle8Iukjo5DIdE4SB1WVKie1C6rQ4dmAZRvgVNoXtgm24E6tGBnbQyKKgKDasjm46am5AatguBfYeKLKwnLcQhLbRXfC90+w4a9cWB4UFptC7ZykggK0QzOjBm1ajHvOyBMF/LfsGwVnLSJeAbGh4IREs2CVKDqynlasQDl0fKQhnqj6NkXIeiHgVOyZi9QQEJFTFSPCj1AoCSYpC9oXS4DA1QTGJ7qIgHFRmF0Iw6QLZG2zuNoyWlmTVCpLK2Dp4burD2ZNl30DIOwlN6Xd13EDwHrRiJvUHr/nzSTfwRTJeMWqyVeqZNlDWgWVAAnUAU2Jsma9YCBMdgIqOxhLznKaCVJ4GJxwv37bU/nZ/vTGG1JGPeecp5rVjhelg8JSMQhLaDLcU8xpOkkCoG6Gc5Clr7ivZMe6pIqvN6EqWW+7/v9kIwo6+vgvbkfJs6x/VQobpI4dgb+iP7hPFhEG7/hu6LNoN7z7c8Pks+ZBb/2NN9kz88nhXxKyw+CdWd2vP8Ad0fqMxp0wS0jyyeqb/+nfOlhPwwxhGH9lDIukQ/tMd8YDWj7Xd+fqL81uIJtd54bm/x+fS8Is67TvFbIq7nJJ/x+ZRPIsre2EXnu/HIhi3NPoG9O1k/4ovpmvty31cfWzzRns5jI4r2Ezx+1H6Zl4bT+gIqiyrLVr882AeCd62PCfUDy4dWf0Ex0c5P63tB/eBO9MOML9sJ5p36xPJhVMX6ZWnHpPrKCa6f6zfnIZ5ML6k+XPAYuACFZqbyji/38jPWH3i35LDAaIQYgrW9AoXSKI51GkuJEVXV7A0ZMSaF9wEV5xMh8DfULpo33ZKnM8eRZsMjUuDrK2A61lKRIEcbMqiUSaiU07jCJjR5WfejDRkcdaq8VxdsTjTdC2/u4zIrZvJY0xWmlLlQ/ioB60cZDHg0ApF5DwoptqSGUHDgA4osy1gzUA5og6KMDoxU03JFVPgAOw2AbfdAwtrGaRBWMY7xcNwJK7s1iW5ZEu+kw3IvkCstVW2sCa13odqi1aol+ei0uOLVlTqw6iMJq3l7Azk4CT3q28EpwbRSKZ6DpVzZBAOctO83qEdD+AhviFyilq6oh0M509hwDlqUWEXRmhlnvteixIbw7Q4LLnQSvWP1Hi9B68klqF0cau8M9yvKUuQ2NWbfI+JBtLEic/A4e6iJ31Sum/A0XRcxUzLtTiOKk+LoSH1o2c1wmakfh2PWrGAgG1YGguYr0u7d9hu0YX/2fBQNiWLNYpqq3GUnbFFZtaEvwYFdhiGZihi3DCsG8g7sAwwfhKp53wvrsOcfe3gU89qesOK/DJSVX9n6R2857C1F/dKMNyojoM+435Puq+AwxHHEV+R25Qx2x+Xc0t15qnUapQBV84vxsHycQBVn+xQHx1eURZdbDH5B3BADH7fw8efy+ZUKYDYOWRjL87Ixpiv39VDAxD7N27T7fHyScJwQPzSeESo0mz2uh34zEFErB3o11+yXcQsfRy327NuWFcEnn+ON66LN+PNk/AaNJpdCEe9f49n4ELvMs3HXxz5XPLXXH+7fRn67Pj3dPq3c/h+/pdQ/3b7DlM//AQ==);lineShape=1;strokeColor=default;fontSize=16;" vertex="1" parent="1">
          <mxGeometry x="514.5616325610226" y="-70.48668944917245" width="641.4718591457267" height="231.37614445392654" as="geometry" />
        </mxCell>
        <mxCell id="hiCgDXWP21jply5wk_gd-54" value="&lt;font style=&quot;font-size: 20px;&quot;&gt;It&#39;s not trivial to deduplicate messages in SQS so if the lastBuilldDate does not&#39;&lt;br&gt;match when polling the feed, drop the message, and move on. We know there is a newer coming.&lt;br&gt;To prevent bottlenecks in event-based architecture/message-passing a good rule of thumb is to pass&lt;br&gt;data in the message and not have to resolve and follow links. However, RSS feeds are lightweight and extra&lt;br&gt;traffic here does not matter. Pseudo code:&lt;br&gt;1. Follow RSS feed, does lastBuildDate match? If not drop&lt;br&gt;2. Crawl the whole document and update the show store. This way if add and remove episodes from a show&lt;br&gt;the reference for the show will be the same.&amp;nbsp;&lt;br&gt;This is in turn done by checking if the episodes exist in the episode DB, and if so refer to them&lt;br&gt;&lt;br&gt;&lt;/font&gt;" style="text;html=1;align=left;verticalAlign=middle;resizable=0;points=[];autosize=1;strokeColor=none;fillColor=none;fontSize=16;" vertex="1" parent="1">
          <mxGeometry x="910" y="400" width="980" height="250" as="geometry" />
        </mxCell>
        <mxCell id="hiCgDXWP21jply5wk_gd-83" value="&lt;font style=&quot;border-color: var(--border-color); color: rgb(0, 0, 0); font-family: Helvetica; font-style: normal; font-variant-ligatures: normal; font-variant-caps: normal; font-weight: 400; letter-spacing: normal; orphans: 2; text-align: left; text-indent: 0px; text-transform: none; widows: 2; word-spacing: 0px; -webkit-text-stroke-width: 0px; background-color: rgb(251, 251, 251); text-decoration-thickness: initial; text-decoration-style: initial; text-decoration-color: initial; font-size: 20px;&quot;&gt;&quot;https://api.sr.se/api/rss/pod/3795&quot;: {&lt;br style=&quot;border-color: var(--border-color);&quot;&gt;&lt;/font&gt;&lt;blockquote style=&quot;border: none; color: rgb(0, 0, 0); font-family: Helvetica; font-size: 16px; font-style: normal; font-variant-ligatures: normal; font-variant-caps: normal; font-weight: 400; letter-spacing: normal; orphans: 2; text-align: left; text-indent: 0px; text-transform: none; widows: 2; word-spacing: 0px; -webkit-text-stroke-width: 0px; background-color: rgb(251, 251, 251); text-decoration-thickness: initial; text-decoration-style: initial; text-decoration-color: initial; margin: 0px 0px 0px 40px; padding: 0px;&quot;&gt;&lt;font style=&quot;border-color: var(--border-color); font-size: 20px;&quot;&gt;&quot;episodes&quot;: [id1, id3..., id-n]&lt;/font&gt;&lt;/blockquote&gt;&lt;blockquote style=&quot;border: none; color: rgb(0, 0, 0); font-family: Helvetica; font-style: normal; font-variant-ligatures: normal; font-variant-caps: normal; font-weight: 400; letter-spacing: normal; orphans: 2; text-align: left; text-indent: 0px; text-transform: none; widows: 2; word-spacing: 0px; -webkit-text-stroke-width: 0px; background-color: rgb(251, 251, 251); text-decoration-thickness: initial; text-decoration-style: initial; text-decoration-color: initial; margin: 0px 0px 0px 40px; padding: 0px;&quot;&gt;&lt;span style=&quot;font-size: 20px;&quot;&gt;&quot;name&quot;: &quot;EKOT SR&quot;,&lt;/span&gt;&lt;/blockquote&gt;&lt;blockquote style=&quot;border: none; color: rgb(0, 0, 0); font-family: Helvetica; font-style: normal; font-variant-ligatures: normal; font-variant-caps: normal; font-weight: 400; letter-spacing: normal; orphans: 2; text-align: left; text-indent: 0px; text-transform: none; widows: 2; word-spacing: 0px; -webkit-text-stroke-width: 0px; background-color: rgb(251, 251, 251); text-decoration-thickness: initial; text-decoration-style: initial; text-decoration-color: initial; margin: 0px 0px 0px 40px; padding: 0px;&quot;&gt;&lt;span style=&quot;font-size: 20px;&quot;&gt;....&lt;/span&gt;&lt;/blockquote&gt;&lt;blockquote style=&quot;border: none; color: rgb(0, 0, 0); font-family: Helvetica; font-style: normal; font-variant-ligatures: normal; font-variant-caps: normal; font-weight: 400; letter-spacing: normal; orphans: 2; text-align: left; text-indent: 0px; text-transform: none; widows: 2; word-spacing: 0px; -webkit-text-stroke-width: 0px; background-color: rgb(251, 251, 251); text-decoration-thickness: initial; text-decoration-style: initial; text-decoration-color: initial; margin: 0px 0px 0px 40px; padding: 0px;&quot;&gt;&lt;span style=&quot;font-size: 20px;&quot;&gt;&quot;metadata: {}&lt;/span&gt;&lt;/blockquote&gt;&lt;font style=&quot;border-color: var(--border-color); color: rgb(0, 0, 0); font-family: Helvetica; font-style: normal; font-variant-ligatures: normal; font-variant-caps: normal; font-weight: 400; letter-spacing: normal; orphans: 2; text-align: left; text-indent: 0px; text-transform: none; widows: 2; word-spacing: 0px; -webkit-text-stroke-width: 0px; background-color: rgb(251, 251, 251); text-decoration-thickness: initial; text-decoration-style: initial; text-decoration-color: initial; font-size: 20px;&quot;&gt;}&lt;/font&gt;" style="text;whiteSpace=wrap;html=1;fontSize=16;" vertex="1" parent="1">
          <mxGeometry x="931.77" y="983.27" width="530" height="140" as="geometry" />
        </mxCell>
        <mxCell id="hiCgDXWP21jply5wk_gd-88" value="" style="shape=stencil(nVvZciM3DPwavbJ4guTzZvMfW7XeWBXH3vI6198HjIqjYWOmVcmbLAMzJIij0aAu6dOP5y/fny7R//h4f/v16c/r14/nS/rpEuP19fnp/fqhny7p8yV9+vb2/vTL+9vvr19vf3//MiTHp9/e/hhP+Oum11xPQyn6v29fhOhq/febn2/yL9fXnXxIrvZVwbsaiUJ1SRaF7lI7l4/BhbrIN+eFyBeXwiIvTph8d7Us8mW+8FA+ZRfX9asFEpFvrrZFProczuVzdCGvBnVCnp91v3BizhN7ZrMe74ScV9mWe5ePmciLi/h878/lxbvsUZ7YR7KrGddD9ivd+Q7yjdizJhc92LMQ/6mCEcPPt3kXVvnkUiHy0fXV37JL5Lya+sNqn0Lt06qLa3wJ9Z+mGcKDvJD1d+/Sav9K47cH1yLIM3t2Pa8A8p2tJ8/jvOeTxp5fXAN/0BPsREEdAgI40hPrFS0aivMkBXUNYVBo0wjHCppi1zMeSYUZqbu2JkX1oszKgN+ifNPorpA8oa+o6zmnNLd1tmuwa6pzlWd2hTdk3TUzk7iw7iHneTRnvtfXXJd1SSR41LkLBKd3hWQjjTbwPs3HzL2bcddSZkI7yy+yxmfRgGMJsjtZN106rYCaIdsacRJnDjxWyKaEZ/4Gfd66JKm0aFaPRbPyqiANYY4uMpA0pgso65KqfsPqoJi8pEsiIScF39AyNatshWNTqLP2HitEhAqazOkePJ70yM4MLDRX1jzTt10dKxTXV9fQKM/kHEpyfj1pzSMsa2hAhtVKmqkYgNSQB4VdMjzW0HMq+Ap21Jq3YkcFVhQVdEKe0V0zuyaZoGtnV5a+NVkLHLVQ30jBZViSHjUpi1o/AJho6WbpWwt/hDekiSVOWwWjwOqoQrUCzsS7Iy2zUEdVgRVeBaeQycYbSFBr5Qd4rgqNwJMgE+7vNh2Ia4R8ENSF7EFbQiijo06SCArB7CHTxNQxGas8i+lmPKnQtCQmyTzISthCDtDIejbM3OP55MwSQugBYpmfzo5670TsAEzp6VTeY0vShPYwfq52k4+05zdBoLWTOZDBnpXHscqv56Xlna8H/FMUqpLnB6w5ipAiC2KMMC1zmXEirgGKjLSnSjMjbDBVsTTxt2xgrXCwM9uVTT7RbqEanO1nxJ3Iw3pGfWM9NvZHWt6Y/TsWjrQB+xN5gRY+0HjpeL6PeiPsdOJGmp3Jr/4ZN1LoRB5Q12gH6XqA0gk8PzSsq1pDIvE3lYd+Ns2MeiYvKB9JoW+YfwLPh22W3J08q0dbNO3kWc9l7RlpfOl5VZRP9PnN7JfVl27Wr6iZ2DN45NRCom3sgUKmGSuYlB4yLcF9Ftw9h8J6/WmQnTwlabAlDZwQ6dOAe3nq0gAhVD5SFy0R7dNpCAADpPKsbzoKyc6ICsNCb6DlRD7DfiOlWtqEzXuXpiUAOTUNSUYWTU5vH5JUPpsQ5iXmIKVQf7YkYnsQMCYnMkz2fxTwCOqjLNHB5xotq9oHxNWp70jqtHEAhUSHN6oAYXPvAU/fANMbziypApAsyVNWZlhp9bwUKd+gChkUysyuZ6kRVlRp490x9aY+8eZJqAGazpGmLjHoMtMmukxKdUeyJsaWGAbUUzo9Ics1KFaOvmFgyNFlxNr3gC81PiqZ0kkBByDazTC0YuTrg2o/C8WeyWRhPLmsrdsL08In9oHuqhVObmFpbY1PVHG/PdBSUyYW3tEXzH/EdP/cf5oLhrFhaLdP1msnz0r3SKNmQWwDYRsp7CwknBKCyUoPFOAHQZ/unsKJYCB+9w+JM6NA6cUw8dJegYVxwkGJKlDyrxi2MEwUeUZgZnMOnb2hYyl4wEemgLMb9W120qMRBi4v0+p077R33JYwbss0610ouZKDYbd4PRt0e0UFFqC5IjTqW8weK3REOmP2yAhDO1mptF0p5WBQwqalpZk9JNogiDfseaBlSiKyXK3TrlcSemsTmjW07oG3tsTfoK62nkPtdFoqgrC8yhxTHCs0nJPUyM1quCL9hr2hBmz2ZRtLHysk7PaF16uxRViSp4BBjRjNiJjlpRYRBKv/sux9r/ibQqJDaC35CUBY4FcgAh5cbrSh6gnfkIVm724unuVEbw6NPAe0rOcKFXlcRfKs3bkP/XbEJnO+bq4bjMaVbbohOBlkMAMzDdGw4j/KhVZ0jcAvDKpZAb8F4WYtCOgHXcmWVAw5FWdqO1ZQAA9LCvRSVo+GvvCUTunBgETOSNs5I6VHNN4gszaKG1rF4sAnOJoAAsqzrrltOGfLYXSIWU2FLpQxHndWIJhpqapm5skDTQw/GOmt2XEBBuKMRr69Vfmg5xHM2IFOkcet0IrrIfvNzVwo45itYI2KtOIMyqGC/dnzFXVCy5Mpo54y3l4o9Nas5e8qvVU5eoX1vBpl7PV4kM/l12aDuY80mCrWRWakdcbQhA6JkEHlQ/lunp/p3bmG/dqD55sbW6NrpfJiGHKhjDQaNPOLvweMPUtZDdFy4AD+SF4YSMPuVOUzfT5OTBK9B9uwXR5DJWpPvGfLGe//+kuFx/L64f6ziG/Xl5fbryr2/8efUehXt59gpM//AA==);lineShape=1;strokeColor=default;fontSize=16;" vertex="1" parent="1">
          <mxGeometry x="888.2389076699551" y="949.9958671807831" width="408.6512203298632" height="220.41148769057108" as="geometry" />
        </mxCell>
        <mxCell id="hiCgDXWP21jply5wk_gd-89" value="&lt;font style=&quot;font-size: 20px;&quot;&gt;&quot;id1&quot;: {&lt;br&gt;&lt;span style=&quot;&quot;&gt;&lt;span style=&quot;white-space: pre;&quot;&gt;&amp;nbsp;&amp;nbsp;&amp;nbsp;&amp;nbsp;&lt;/span&gt;&lt;/span&gt;&quot;show&quot;:&amp;nbsp;&quot;https://api.sr.se/api/rss/pod/3795,&lt;br&gt;&lt;span style=&quot;&quot;&gt;&lt;span style=&quot;white-space: pre;&quot;&gt;&amp;nbsp;&amp;nbsp;&amp;nbsp;&amp;nbsp;&lt;/span&gt;&lt;/span&gt;&quot;name&quot;: &quot;Ekot,nyhetssändning,Ekot,16:45&quot;,&lt;br&gt;&lt;span style=&quot;&quot;&gt;&lt;span style=&quot;white-space: pre;&quot;&gt;&amp;nbsp;&amp;nbsp;&amp;nbsp;&amp;nbsp;&lt;/span&gt;&lt;/span&gt;&quot;image&quot;:&amp;nbsp;https://static-cdn.sr.se/images/4540/df283fdb-0de6-4615-893c-6706162658cc.jpg?preset=api-itunes-presentation-image&lt;br&gt;&lt;span style=&quot;&quot;&gt;&lt;span style=&quot;&quot;&gt;&amp;nbsp;&amp;nbsp;&amp;nbsp;&amp;nbsp;&lt;/span&gt;&lt;/span&gt;...&lt;br&gt;&lt;span style=&quot;&quot;&gt;&lt;span style=&quot;&quot;&gt;&amp;nbsp;&amp;nbsp;&amp;nbsp;&amp;nbsp;&lt;/span&gt;&lt;/span&gt;&quot;metadata&quot;: {}&lt;br&gt;}&lt;/font&gt;" style="text;whiteSpace=wrap;html=1;fontSize=16;" vertex="1" parent="1">
          <mxGeometry x="910" y="666.73" width="530" height="140" as="geometry" />
        </mxCell>
        <mxCell id="hiCgDXWP21jply5wk_gd-91" value="" style="shape=stencil(fZbdcgIhDIWfZm8zQAg/17Z9j85U606tdqz9e/tmZ0c0uJ47xP0I5JwEBl59bp8/1kNwn6fj4W39M76ctgM/DCGM++36OJ50NPDjwKvN4bh+PR6+9i/z74/n6ctp9H74nlb4nbmSKZeJCu5vngmZ6jzzNAO7cX8FVKEsBuBKrgKg9oAE8gkCbLeUhEoEQKSUDZDLeWYRKIl8MEDRmHwfyBrBG6Amyu4+kDxxMoB3jhwgYu7TVAsVkFcWCs4CTBEoF4RctKeOxHIf8IXYpikHikAIf+MNUW94AGSSaoAoFIE3AlOyeWU+p2E5S9yfQZcQILVuQOwZdJNoS9Ls3wA5u2XZTIHECqeJ9kDpSaauRiNVcAY1QhdBzeLBli5WazpkSsBLV25uRaqWRyFawTQzRRIQYirJzq5atkBqLfouwqUxLBepthWb10vrWZY6UOAeyKCCtDV625mm9gmUC4Wc3VLJMMIE1BsA2FW9JraVlQB7n3c9oMKhCLEvIM1zBPZ25/umNQ1tVEC2G+fFCC8g398O2hNQuQlVu752DBfA+q0ptnqO5JFmeuIuo9DY7KjY71UxdJV4EntifPWorW++R/dC4t7V3DlIB5cHx2bc7eb3yvX//QNFp+bHDT/+Aw==);lineShape=1;strokeColor=default;fontSize=16;" vertex="1" parent="1">
          <mxGeometry x="634.9466014041263" y="906.9588540975319" width="7.7875662868586915" height="7.775393693929497" as="geometry" />
        </mxCell>
        <mxCell id="hiCgDXWP21jply5wk_gd-92" value="" style="shape=stencil(lVvJch03DPwaXVkkwfXsOP/hKsuxKo7lku0sfx8wCvmGjZl+pZviAPOGCxqNBuZB3n3//OHb40P033+8PP/++NfTxx+fH+SXhxifvn5+fHn6oX89yPsHeffp+eXxt5fnn18/vv73tw/Dcvz1x/Of4wl/v/olV/Jwiv6f13/orrT//uHXV/MvT18389Q38xBdSsw+lN2+uJqv7cX1uNlH74Iwe3j98Yv0+QL2zRX6fB82exGXwrV9dGVfrzQn1B7eJ8ncsQt7v+9/avMNT+2Da/v75Ogy2Z+A+5n1vMh9CC7t9sW7Rt8ntt0+uUruT3Bh3/+i51Wv7b3r+3qrngh5H33btNsXJ53ZV7Dvrnlm///bTvsW5xte2e/72bLr5Lzs85urdL1135+uJ0Luv+7nvt6uEUTWq0/b47enucNX920/367rpfESAK7K3LEL+7bvT68uUnxoEe0ruW/Zedntm4tkf8pEy4M9w8928vxM7s9C76M9i/fgJKKDkAUr3nezQ51ETNCUUcwRkCWEjDGsZxwZBlUEUb1Enr1SM0lPaNSEbhatFzGSaxfmLVgO3glZg17UvAeCBnImgTlu6n6TWnGZLFqvativRlPoZWtYzztgF8M6e1nbgo9zhz7v8gFNA7l8oukA4LfS6y16W/dzUHz35BwkmYSQaEKTYn5BJsaeO3Tn98unKaoxymUwVR0Cc1CKsp9DDfRqpIwnrQ4sgFKdpGA5eP4LfS7x4MB4XQ6YeEqnQJ8Tbqs6sBBVYhP2XRrUgpx0bhO2Dg6ROCgVyvALlSb/IhhA6tCYQ0a6OX6BLHq8ccM1ePIL1RAkdWAEQG9/zG/Z1ppd3QNID86zX2gIAurAsLV5vN6FFzmDowk6sG1VkgY0VfeNBVCrLnR0YPHQOhKf8UoEKpXXQeWiDpmAsWa0Yk66kVdSZufN5WPIp1kZisFSJvs4d1Cs3pFPq4VEDq6v4nI5RBfZoutk+6ve6TQp9orkRHGkEVy68bvlIBTu1aFBCeZnhJw7mKuh8JxJxKmD7Nc7JVrUDgf4hVX3XTlAytIyuLBtbZgfJLtGAmiw1P2VZGW9q4ODcxBPK6tx+fZdipxKj3jYgUwZVGDbaornIWeQmFZKmPaYvtXTV7jk9/JHqS9DjaZEYV9DKLR+U/4F6K18v/P8ACcdNGOQkx7AuB+cliCenLSCCtSUWuR4smhNuwDGwdMcpxjR3yKa5WJFNkZzFSGgKGuUXSlAABK3CZznbKzM2FrZxyVmLzMRLFilRXHyCGGF0/qK+5lpkavY4BvYMxFMqwBA+SVjXtUloAIscnluX6fGt7CFop0+DlQ5oYR+FId7CEQqmkXvEiARF20aAlGgdZtiQoGAcYU938LQRO9zezERTEUbBQQx9kwwCEaVnhrFub2FIFoTdiz++fabVBYp2azzbh0uG0M31/dYSS6Tp5eJBLfQYtCQDVOm6lFGlaNStdXQ6sZxyiQvT5Ummbf2kIpYZhETJnJHTIwV7YW+jzepkcWJETfG+zDNCNnxWC8TdLAi0EArDDfNfsbJNK/sTaJm7CSiuKn2rHkTZ5Qe7O/sp3k+zVsGRtSe7KdpPoWlZ13Y52jen+U5VAPUnuZRbGaoPSPdMrP+4Xx5fOHzI82LcnLfWB4SE++LyV3tv6A9u59iYF8oukWkMSMeWV53taM9EycjNnvCHUH2JB5Z2XZmz1SMiLRW70/l+GPuJ6vZ3movKG51qp4JsuBGozHh0yvtNKe5FQcOzNRFlM0yheaMspxwZRHb9kIJbZ1p5MZIGD9tJm/xUhxVHU+PSZM4FOKetswGqOLz2UFZ9ugpCwgGpjw9KmW/9n1Ys8mIWJ6yBmXvGd+fZmmPDblAJeATWJi4e1XdQLMsTJJ4WT3tsBY5yppeQuQdmojrvcPaMuppQqtdaXifE1U1tTruaM/2R6tvoHmZdga1uu+m+mbqhMf7yUc+hjqBQMhY1ZgggQ4ZXW/xuJ+8RV4E+zKd3udi3qdTnbt6hGZFJJZ2a8IFjDxKblCtOKUwMIa1D4IpwDPtjrU8NbblUCf5uJIacbDK03ZaD0j2Ip806hol4JBpUuoF43iUwqwMr7OaOEi+ka2hYdNROAHtHaFXwYMpIb0b5adRMA3eo6o8tHfW+Om46pT4QXSkoaO9y/J3n02YBUiBZsDeUZ/MiRYOY2hlX0OuVEKxR60owqh3X89bDpHq1nr7oNgomTevMlZvheOkBgTEaGkUKHs86cLTCAo4PagODOpH1xF+IdAIGn1N40B7s9m8Upi4cO4QjXbNi/TR/c24aLattZ3sEpMZakasvKWMcwdBgbDwSqWuhHNwYDFd7KxCp9JBMWsovEcxZhVMF57R2jENUdGBjU/khl0QdWDlqxKNaBxYb1ZRCEZAKqfaOWJmHyfD515wHjVQcpsqJgh1YA24lFEUqJEGkNJJ1GAj5T/JjAhWPgMtFjUS18Uq9gfUgQmBks0MVaZDiGKkulqpVCoB28W18UHTjixdgYeNHgzZH+SHMPXHc4eCd6kJPbhbF205ZK7PpPnGy6HymUIDxo0PmYzSESSawOfpPWronWt8twb3ckizm3fuYPopY9yU1dsFr7eSCcrhkvkFPtsZzFcHYwKD/ULAErrfGWPB+mGwRj6GDEq656JHwcvdO522SBg9N1Z6Jf2aBXNpEwSwMXFC59JhZKzz0T1T049RJGoPbFLpYqTfNWCNK/TOeeycdd46MBrb+I6AfhcAVUnLlFTZ50c65+8NB+MX2iOjqny0zJucFmlb1GhmZZUoF/YF1N9EOaTHVlXhIp6Z7hszJgy0JtVa9pFqtCb9DWJCvwMCTSXday3id1VcfI+Tly174dkVAW6ISPS7Kmj9DUGdzYkbTYjjm8yafdmXe605kNT5DIH5bq7TDCPmsx7KSgV3hzP3hKVB59PktsvPuFzCaa1GxyVM26bROj9hJr33dBgJ4PN1CTWBToXBZNgS/bjI8gxeCdipNDY2+uYvRe+Y6x+3j1I/PX358vpN6/H/40es+k+vH8DK+38B);lineShape=1;strokeColor=default;fontSize=16;" vertex="1" parent="1">
          <mxGeometry x="846.7533839131074" y="629.3051278343482" width="643.7199971788277" height="333.39095987304404" as="geometry" />
        </mxCell>
      </root>
    </mxGraphModel>
  </diagram>
</mxfile>
